<?xml version="1.0" standalone="no"?>
<!DOCTYPE svg PUBLIC "-//W3C//DTD SVG 20010904//EN"
 "http://www.w3.org/TR/2001/REC-SVG-20010904/DTD/svg10.dtd">
<svg version="1.0" xmlns="http://www.w3.org/2000/svg"
 width="1713.000000pt" height="1713.000000pt" viewBox="0 0 1713.000000 1713.000000"
 preserveAspectRatio="xMidYMid meet">
<metadata>
Created by potrace 1.11, written by Peter Selinger 2001-2013
</metadata>
<g transform="translate(0.000000,1713.000000) scale(0.100000,-0.100000)"
fill="#000000" stroke="none">
<path d="M8188 14925 c-2 -1 -61 -6 -133 -9 -284 -15 -351 -21 -655 -57 -230
-27 -228 -26 -390 -53 -80 -14 -162 -27 -182 -30 -148 -22 -595 -124 -818
-186 -80 -23 -153 -43 -162 -45 -148 -34 -794 -260 -973 -339 -16 -8 -95 -42
-175 -76 -234 -100 -718 -342 -863 -431 -26 -16 -49 -29 -52 -29 -15 0 -440
-267 -613 -385 -142 -97 -512 -373 -542 -405 -3 -3 -30 -25 -60 -50 -30 -25
-66 -54 -79 -65 -119 -98 -330 -292 -492 -454 -189 -189 -227 -229 -369 -390
-36 -41 -69 -79 -75 -85 -5 -6 -37 -45 -70 -86 -33 -41 -63 -77 -66 -80 -25
-21 -281 -373 -382 -526 -120 -182 -290 -469 -346 -584 -15 -30 -35 -67 -45
-82 -10 -16 -16 -28 -13 -28 3 0 -10 -27 -29 -61 -18 -33 -34 -64 -34 -68 0
-5 -20 -50 -44 -102 -89 -192 -240 -603 -290 -791 -85 -319 -86 -323 -182
-845 -2 -13 -6 -35 -9 -50 -3 -16 -8 -43 -11 -62 -3 -18 -8 -43 -10 -55 -3
-11 -7 -39 -10 -60 l-6 -40 24 16 c64 42 510 325 563 358 313 191 701 351
1106 454 75 20 148 37 161 40 14 2 72 13 129 25 128 25 144 28 244 41 44 6 94
13 110 15 74 10 242 26 326 30 82 5 568 5 634 0 74 -5 195 -15 235 -20 19 -2
60 -7 90 -10 30 -4 66 -8 80 -10 14 -2 45 -7 70 -10 94 -12 320 -57 435 -87
66 -16 125 -31 130 -32 88 -20 336 -104 490 -166 174 -69 473 -218 549 -273 6
-4 53 -34 104 -67 52 -33 99 -65 105 -70 7 -6 50 -39 97 -73 l85 -64 150 110
c306 223 633 392 1000 515 124 42 322 102 385 117 31 7 213 47 234 51 11 2 44
8 71 14 28 5 64 12 80 14 17 2 62 9 100 15 118 18 267 33 345 35 l45 1 0
-3535 0 -3535 385 0 c212 1 412 3 445 5 l60 5 0 1465 1 1465 38 85 c83 187
206 398 294 503 58 70 201 205 252 239 129 85 288 146 437 167 84 11 294 11
388 -1 39 -5 117 -22 174 -39 132 -38 207 -44 252 -20 40 22 75 86 83 151 5
42 8 63 21 130 3 14 8 42 11 64 3 21 8 48 10 60 3 11 7 32 9 46 2 14 6 39 9
55 27 152 34 201 30 207 -8 12 -94 55 -171 83 -98 37 -204 64 -292 72 -117 12
-332 7 -418 -10 -43 -9 -94 -16 -115 -15 -168 1 -497 -169 -864 -448 -123 -93
-156 -119 -180 -142 -8 -7 -17 -11 -21 -9 -12 8 -10 2952 2 2951 6 -1 42 -5
80 -8 104 -9 146 -15 310 -41 70 -11 168 -30 355 -70 8 -1 35 -8 60 -15 25 -7
50 -13 55 -14 69 -14 370 -114 505 -168 307 -124 549 -257 820 -451 122 -88
90 -92 262 32 314 225 711 417 1120 541 57 17 111 33 121 35 10 2 27 7 37 10
10 3 27 8 37 10 10 2 65 15 123 29 58 14 119 28 135 31 61 10 211 36 235 40
132 21 347 43 490 51 99 5 525 5 610 -1 147 -9 283 -21 340 -30 14 -2 63 -9
110 -15 47 -6 105 -15 130 -20 25 -5 59 -12 75 -14 237 -38 684 -167 900 -260
359 -155 446 -204 909 -515 149 -99 271 -179 273 -177 3 3 -16 125 -32 206 -3
14 -23 129 -45 255 -37 215 -95 499 -105 515 -2 3 -6 18 -9 32 -9 51 -56 215
-100 348 -194 593 -459 1119 -844 1675 -61 87 -251 343 -273 366 -8 8 -32 37
-54 64 -158 201 -583 649 -785 830 -31 28 -74 66 -95 85 -41 37 -212 181 -281
237 -214 174 -541 411 -749 543 -218 138 -286 180 -289 180 -2 0 -33 17 -68
39 -35 21 -86 51 -113 66 -28 15 -86 47 -130 71 -298 165 -704 353 -1065 494
-229 89 -530 194 -670 234 -25 7 -119 35 -210 61 -91 26 -172 48 -180 50 -8 2
-44 11 -80 20 -64 17 -79 20 -121 30 -11 2 -28 6 -37 9 -9 3 -28 7 -42 10 -14
2 -45 9 -70 15 -25 5 -60 13 -79 16 -19 3 -37 8 -40 10 -4 2 -26 6 -51 10 -25
4 -47 8 -50 10 -3 2 -23 6 -45 9 -22 4 -87 15 -145 26 -58 10 -123 22 -145 25
-23 3 -51 7 -64 10 -13 2 -42 7 -65 9 -22 3 -50 7 -61 10 -11 2 -45 7 -76 10
-31 4 -65 8 -75 10 -11 2 -53 7 -94 10 -41 4 -86 9 -100 11 -14 3 -50 7 -80
10 -30 2 -77 7 -105 9 -27 3 -93 8 -145 11 -52 4 -117 9 -145 11 -57 5 -913
13 -917 9z"/>
</g>
</svg>
