<?xml version="1.0" encoding="utf-8"?>
<!-- Generator: Adobe Illustrator 24.1.1, SVG Export Plug-In . SVG Version: 6.00 Build 0)  -->
<svg version="1.1" id="Layer_1" xmlns="http://www.w3.org/2000/svg" xmlns:xlink="http://www.w3.org/1999/xlink" x="0px" y="0px"
	 viewBox="0 0 1000 1000" style="enable-background:new 0 0 1000 1000;" xml:space="preserve">
<style type="text/css">
	.st0{fill:#ED1C24;}
	.st1{font-family:'Lato-Regular';}
	.st2{font-size:220.753px;}
	.st3{letter-spacing:-4;}
	.st4{fill:none;stroke:#000000;stroke-width:13;stroke-miterlimit:10;}
	.st5{font-family:'Lato-Light';}
	.st6{font-size:110.4461px;}
	.st7{letter-spacing:-2;}
	.st8{font-family:'Lato-Bold';}
	.st9{font-size:149.4842px;}
</style>
<path class="st0" d="M41.28,310.23"/>
<text transform="matrix(1 0 0 1 32.569 553.6011)" class="st1 st2 st3">Imperfect</text>
<polygon points="535.78,553.87 535.78,376.71 517.55,376.71 517.55,532.14 517.55,553.87 "/>
<g>
	<path class="st4" d="M722.97,394.98c-16.34-10.93-38.96-17.77-64.13-17.77c-26.16,0-49.67,7.4-66.12,19.21
		c-16.45-11.81-39.96-19.21-66.23-19.21c-26.49,0-50.33,7.62-66.78,19.76c-16.45-12.14-40.4-19.76-67-19.76
		c-24.28,0-46.25,6.4-62.36,16.67c13.69-73.62,96.36-138.63,196.14-138.63C626.83,255.24,709.84,320.91,722.97,394.98z"/>
	<path class="st4" d="M459.72,396.96c0,0-0.27-92.14,66.78-141.72"/>
	<path class="st4" d="M593.45,396.96c0,0,0.27-92.14-66.78-141.72"/>
</g>
<text transform="matrix(1 0 0 1 56.448 664.0059)" class="st5 st6 st7">AND</text>
<text transform="matrix(1 0 0 1 312.1413 674.1915)" class="st8 st9 st7">Company</text>
<path d="M565.12,441.06c0,0-5.42-4.33-29.34,15.69c-23.92,20.02-9.28,17.09-9.28,17.09L565.12,441.06z"/>
</svg>
